<svg xmlns="http://www.w3.org/2000/svg" xmlns:xlink="http://www.w3.org/1999/xlink" version="1.1" width="256" height="256" xml:space="preserve"><rect id="backgroundrect" width="100%" height="100%" x="0" y="0" fill="none" stroke="none"/>

<defs>
<filter id="f094" inkscape:label="Glow" xmlns:inkscape="http://www.inkscape.org/namespaces/inkscape" inkscape:menu="Shadows and Glows" inkscape:menu-tooltip="Glow of object's own color at the edges" color-interpolation-filters="sRGB">
            <feGaussianBlur stdDeviation="5" result="result91"/>
            <feComposite in="SourceGraphic" operator="over" in2="result91"/>
        </filter></defs>

<g class="currentLayer" style=""><title>Layer 1</title><g style="stroke-dasharray: none; stroke-linecap: butt; stroke-linejoin: miter; stroke-miterlimit: 10; fill: white; fill-rule: nonzero;" transform="translate(1.40659, 1.40659) scale(2.81)" id="svg_1" class="selected" opacity="1" filter="" stroke-width="7" stroke="#000000" stroke-opacity="1">
	<path d="M 3 90 c -0.768 0 -1.536 -0.293 -2.121 -0.879 c -1.172 -1.171 -1.172 -3.071 0 -4.242 l 84 -84 c 1.172 -1.172 3.07 -1.172 4.242 0 c 1.172 1.171 1.172 3.071 0 4.242 l -84 84 C 4.536 89.707 3.768 90 3 90 z" style="stroke-dasharray: none; stroke-linecap: butt; stroke-linejoin: miter; stroke-miterlimit: 10; fill: rgb(0, 0, 0); fill-rule: nonzero;" stroke-linecap="round" id="svg_2" opacity="1" filter="" stroke-width="7" stroke="#000000" stroke-opacity="1"/>
	<path d="M 87 90 c -0.768 0 -1.535 -0.293 -2.121 -0.879 l -84 -84 c -1.172 -1.171 -1.172 -3.071 0 -4.242 c 1.171 -1.172 3.071 -1.172 4.242 0 l 84 84 c 1.172 1.171 1.172 3.071 0 4.242 C 88.535 89.707 87.768 90 87 90 z" style="stroke-dasharray: none; stroke-linecap: butt; stroke-linejoin: miter; stroke-miterlimit: 10; fill: rgb(0, 0, 0); fill-rule: nonzero;" stroke-linecap="round" id="svg_3" opacity="1" filter="" stroke-width="7" stroke="#000000" stroke-opacity="1"/>
</g></g></svg>